<svg version="1.1" id="Layer_1" xmlns="http://www.w3.org/2000/svg" xmlns:xlink="http://www.w3.org/1999/xlink" x="0px" y="0px"
	 viewBox="0 0 56 49.5" style="enable-background:new 0 0 56 49.5;" fill="#2a8ab9">
<path d="M56,24.7c0-1.8-1.4-3.4-3.7-4.7c0.1-0.3,0.1-0.6,0.1-0.8c0-2.3-1.8-4.1-4.1-4.1c-1.6,0-3,0.9-3.7,2.3
	c-0.9-0.2-1.9-0.4-2.9-0.6c0.7-1.9,1.3-3.8,1.7-5.5c1.4-5.8,1-9.5-1.4-10.9C41.4,0.2,40.8,0,40.1,0C36.7,0,32.3,3.8,28,9
	c-0.4-0.5-0.9-1.1-1.3-1.6c0.4-0.6,0.6-1.3,0.6-2.1c0-2.3-1.8-4.1-4.1-4.1c-0.9,0-1.7,0.3-2.3,0.7c-1.8-1.2-3.4-2-4.9-2
	c-0.7,0-1.3,0.2-1.9,0.5c-2.3,1.3-2.8,5.1-1.4,10.9c0.4,1.7,1,3.6,1.7,5.5C6.2,18.2,0,20.9,0,24.7c0,3.9,6.2,6.5,14.4,7.9
	C11.4,40.4,10.6,47,14,49c0.6,0.3,1.2,0.5,1.9,0.5c1.2,0,2.6-0.5,4-1.4c0.7,0.5,1.5,0.7,2.3,0.7c2.3,0,4.1-1.8,4.1-4.1
	c0-0.7-0.2-1.3-0.4-1.8c0.7-0.8,1.4-1.6,2.1-2.4c4.3,5.2,8.7,9,12.1,9c0.7,0,1.3-0.2,1.9-0.5c3.4-1.9,2.6-8.6-0.4-16.4
	C49.8,31.2,56,28.6,56,24.7z M40.1,2.5c0.3,0,0.5,0.1,0.6,0.1c0.9,0.5,1.5,2.9,0.2,8.1c-0.4,1.8-1.1,3.7-1.9,5.7
	c-1.9-0.2-4-0.4-6-0.5c-1.1-1.7-2.3-3.3-3.5-4.9C34,5.6,38,2.5,40.1,2.5z M19.3,27.5c0.3,0.6,0.6,1.1,1,1.7c0.3,0.6,0.7,1.1,1,1.7
	c-1.2-0.1-2.3-0.2-3.4-0.3C18.3,29.6,18.8,28.5,19.3,27.5z M17.9,18.9c1.1-0.1,2.2-0.2,3.4-0.3c-0.3,0.6-0.7,1.1-1,1.7
	c-0.3,0.6-0.6,1.1-1,1.7C18.8,21,18.3,19.9,17.9,18.9z M20.7,24.7c0.5-1,1.1-2.1,1.8-3.2c0.6-1.1,1.3-2.1,1.9-3.1
	c1.2-0.1,2.4-0.1,3.6-0.1c1.3,0,2.5,0,3.7,0.1c0.6,1,1.3,2,1.9,3.1c0.6,1.1,1.2,2.1,1.8,3.2c-0.6,1.1-1.1,2.1-1.8,3.2
	c-0.6,1.1-1.3,2.1-1.9,3.1c-1.2,0-2.4,0.1-3.7,0.1c-1.3,0-2.5,0-3.6-0.1c-0.6-1-1.3-2-1.9-3.1C21.8,26.9,21.3,25.8,20.7,24.7z
	 M35.7,29.2c0.3-0.6,0.7-1.1,1-1.7c0.5,1.1,1,2.1,1.4,3.1c-1.1,0.1-2.2,0.2-3.4,0.3C35,30.3,35.4,29.7,35.7,29.2z M36.7,22
	c-0.3-0.6-0.6-1.1-1-1.7c-0.3-0.6-0.7-1.1-1-1.7c1.2,0.1,2.3,0.2,3.4,0.3C37.6,19.9,37.2,21,36.7,22z M28,13.1
	c0.7,0.9,1.3,1.8,2,2.8c-0.7,0-1.3,0-2,0c-0.7,0-1.3,0-2,0C26.7,14.9,27.3,14,28,13.1z M15.3,2.7c0.2-0.1,0.4-0.1,0.6-0.1
	c0.9,0,2,0.5,3.4,1.4C19.1,4.4,19,4.9,19,5.4c0,2.3,1.8,4.1,4.1,4.1c0.6,0,1.2-0.1,1.7-0.4c0.5,0.6,1.1,1.2,1.6,1.9
	c-1.2,1.6-2.4,3.2-3.5,4.9c-2.1,0.1-4.1,0.3-6,0.5c-0.8-2-1.4-4-1.9-5.7C13.8,5.6,14.4,3.2,15.3,2.7z M2.5,24.7
	c0-1.8,4.8-4.2,12.8-5.5c0.7,1.8,1.6,3.6,2.5,5.5c-0.9,1.8-1.8,3.7-2.5,5.5C7.3,28.9,2.5,26.5,2.5,24.7z M24.2,41.1
	c-0.6-0.3-1.2-0.5-1.9-0.5c-2.3,0-4.1,1.9-4.1,4.1c0,0.5,0.1,1,0.3,1.4c-1,0.6-1.8,0.9-2.5,0.9c-0.3,0-0.5-0.1-0.6-0.1
	c-1.6-0.9-1.2-6.2,1.7-13.8c1.9,0.2,3.9,0.4,6,0.5c1.1,1.7,2.3,3.3,3.5,4.9C25.6,39.4,24.9,40.2,24.2,41.1z M26,33.6
	c0.7,0,1.3,0,2,0c0.7,0,1.3,0,2,0c-0.7,1-1.3,1.9-2,2.8C27.3,35.5,26.7,34.6,26,33.6z M40.7,46.8c-0.2,0.1-0.4,0.1-0.6,0.1
	c-2.1,0-6.1-3.1-10.5-8.5c1.2-1.6,2.4-3.2,3.5-4.9c2-0.1,4.1-0.3,6-0.5C42,40.6,42.3,45.9,40.7,46.8z M40.7,30.2
	c-0.8-1.8-1.6-3.6-2.5-5.5c0.9-1.8,1.8-3.7,2.5-5.5c1.3,0.2,2.4,0.4,3.5,0.7c0.3,1.9,2,3.4,4.1,3.4c1.1,0,2.1-0.4,2.8-1.1
	c1.6,0.8,2.5,1.7,2.5,2.5C53.5,26.5,48.7,28.9,40.7,30.2z M28,28.9c2.3,0,4.1-1.8,4.1-4.1c0-2.3-1.9-4.1-4.1-4.1
	c-2.3,0-4.1,1.8-4.1,4.1C23.9,27,25.7,28.9,28,28.9z"/>
</svg>
