<svg xmlns="http://www.w3.org/2000/svg" xmlns:xlink="http://www.w3.org/1999/xlink" x="0px" y="0px"
	 viewBox="0 0 57 49.9" style="enable-background:new 0 0 57 49.9;" xml:space="preserve" fill="#2a8ab9">
<g>
	<path class="st0" d="M30.4,10.3c-1.2-0.8-3.2-0.8-4.4,0L7.4,22.5c-1.2,0.8-2.2,2.7-2.2,4.1v20.7c0,1.5,1.2,2.7,2.7,2.7h8.5
		c1.5,0,2.7-1.2,2.7-2.7V32.9c0-1.5,1.2-2.7,2.7-2.7h13.7c1.5,0,2.7,1.2,2.7,2.7v14.3c0,1.5,1.2,2.7,2.7,2.7h8.5
		c1.5,0,2.7-1.2,2.7-2.7V27.1c0-1.5-1-3.3-2.2-4.1L30.4,10.3z"/>
	<path class="st0" d="M54.1,17.1c-1.2-0.8-2.2-2.7-2.2-4.1V8.7c0-1.5-1.2-2.7-2.7-2.7h-0.4c-1.5,0-2.7,1.2-2.7,2.7v0.4
		c0,1.5-1,2-2.2,1.2L30.5,1.5C29.3,0.7,28.2,0,28.1,0c-0.1,0-1.2,0.7-2.5,1.5L1.3,17.5c-1.2,0.8-1.7,2.3-1,3.3
		c0.6,1,2.2,1.1,3.4,0.3L25.8,6.4c1.2-0.8,3.2-0.8,4.4,0l23,15.3c1.2,0.8,2.8,0.7,3.4-0.3c0.7-1,0.2-2.4-1-3.3L54.1,17.1z"/>
</g>
</svg>
