<?xml version="1.0" encoding="utf-8"?>
<!-- Generator: Adobe Illustrator 19.2.0, SVG Export Plug-In . SVG Version: 6.00 Build 0)  -->
<svg version="1.1" id="Layer_1" xmlns="http://www.w3.org/2000/svg" xmlns:xlink="http://www.w3.org/1999/xlink" x="0px" y="0px"
	 viewBox="0 0 13.8 23.8" style="enable-background:new 0 0 13.8 23.8;" xml:space="preserve">
<style type="text/css">
	.st0{fill:none;stroke:#FFFFFF;stroke-miterlimit:10;}
	.st1{fill:#FFFFFF;}
</style>
<g>
	<path class="st0" d="M7.9,23.3h-2c-3,0-5.4-2.4-5.4-5.4v-12c0-3,2.4-5.4,5.4-5.4h2c3,0,5.4,2.4,5.4,5.4v12
		C13.3,20.8,10.8,23.3,7.9,23.3z"/>
	<g>
		<path class="st1" d="M6.9,9.2L6.9,9.2c0.5,0,0.8-0.4,0.8-0.8V5c0-0.5-0.4-0.8-0.8-0.8h0C6.4,4.2,6,4.5,6,5v3.3
			C6,8.8,6.4,9.2,6.9,9.2z"/>
	</g>
</g>
</svg>
