<svg xmlns="http://www.w3.org/2000/svg" xmlns:xlink="http://www.w3.org/1999/xlink"><symbol id="icon-fb" viewBox="0 0 48 48">
<path d="M43.5,0h-39C2,0,0,2,0,4.5v39C0,46,2,48,4.5,48H24V27h-6v-6h6v-3c0-5,4-9,9-9h6v6h-6c-1.6,0-3,1.3-3,3v3h9
	l-1.5,6H30v21h13.5c2.5,0,4.5-2,4.5-4.5v-39C48,2,46,0,43.5,0z"/>
</symbol><symbol id="icon-insta" viewBox="0 0 48 48">
<path d="M43.5,0h-39C2,0,0,2,0,4.5v39C0,46,2,48,4.5,48h39c2.5,0,4.5-2,4.5-4.5v-39C48,2,46,0,43.5,0z M33,7.5
	C33,6.7,33.7,6,34.5,6h6C41.3,6,42,6.7,42,7.5v6c0,0.8-0.7,1.5-1.5,1.5h-6c-0.8,0-1.5-0.7-1.5-1.5V7.5z M24,15c5,0,9,4,9,9s-4,9-9,9
	s-9-4-9-9S19,15,24,15z M42,40.5L42,40.5c0,0.8-0.7,1.5-1.5,1.5h-33C6.7,42,6,41.3,6,40.5l0,0V21h3.3C9.1,22,9,23,9,24
	c0,8.3,6.7,15,15,15s15-6.7,15-15c0-1-0.1-2-0.3-3H42V40.5z"/>
</symbol></svg>