<?xml version="1.0" encoding="utf-8"?>
<!-- Generator: Adobe Illustrator 19.2.0, SVG Export Plug-In . SVG Version: 6.00 Build 0)  -->
<svg version="1.1" id="Layer_1" xmlns="http://www.w3.org/2000/svg" xmlns:xlink="http://www.w3.org/1999/xlink" x="0px" y="0px"
	 viewBox="0 0 163.1 206" style="enable-background:new 0 0 163.1 206;" xml:space="preserve">
<style type="text/css">
	.st0{fill:#66C3CB;}
	.st1{fill:#FFFFFF;}
	.st2{fill:#EDDECC;}
</style>
<g>
	<g>
		<path class="st0" d="M100.7,62.5L89.9,73.3c0.7,1.3,1,2.7,1,4.2h16C106.6,71.8,104.3,66.6,100.7,62.5z"/>
		<path class="st0" d="M87.8,70.6l10.5-10.5c-4.1-3.6-9.3-5.9-15.1-6.2v14.5C85,68.7,86.5,69.5,87.8,70.6z"/>
		<path class="st0" d="M79.9,68.4V53.9c-5.8,0.4-11,2.7-15.1,6.2l10.5,10.5C76.6,69.5,78.1,68.7,79.9,68.4z"/>
		<path class="st0" d="M62.4,62.5c-3.6,4.1-5.9,9.3-6.2,15.1h16c0-1.5,0.4-3,1-4.2L62.4,62.5z"/>
		<rect x="4.3" y="71.8" class="st0" width="43" height="11.6"/>
		<rect x="116.6" y="71.8" class="st0" width="43" height="11.6"/>
		<polygon class="st0" points="163.1,68.3 114.9,68.3 81.5,39.3 48.2,68.3 0,68.3 0,61.3 45.6,61.3 81.5,30.1 117.5,61.3 
			163.1,61.3 		"/>
		<path class="st0" d="M120.1,54.2c1.2-3.1,12.2-13.7,5.3-20.7c-6.9-6.9-12.2-3.4-12.2-3.4s4-3.8-0.2-8c-1.9,5.4-4.8,5.7-6.6,3.9
			c-1.8-1.8-0.2-7.3-6.1-11.2s-9.4,1.1-13.6-3c5.6-0.8,4.7-3.9,4.7-3.9s-1.9-3.6-4.9-1.9c0-3.2-2.3-6.1-5-6.1c-2.7,0-5,2.8-5,6.1
			c-3-1.7-4.9,1.9-4.9,1.9s-0.8,3,4.7,3.9c-4.2,4.2-7.6-0.8-13.6,3s-4.3,9.4-6.1,11.2c-1.8,1.8-4.7,1.5-6.6-3.9
			c-4.2,4.2-0.2,8-0.2,8s-5.3-3.6-12.2,3.4c-6.9,6.9,4,17.6,5.3,20.7c1.2,3.1-2,5.5-6.3,2c-0.3,4.7,2.5,8.6,6.9,7.5
			s7.8-4.7,5.3-11.3c4.4-1.2,7.5,5.9,7.5,5.9s4.2-7.5-1.9-10.5c6.3-2.5,4.7-7.1,4.7-7.1s-5.1-0.8-7.8,3.4c0.7-4.9-4.1-6.1-4.1-6.1
			s1.2,3.4-1,5.6c-2.2,2.2-7.2-2.8-3.4-6.5c4.6-4.6,9.8,0.5,13.6,1.6c3.7,1.2,12.2,8,20.2,0c2.6-2.6,4.2-5.7,4.8-8.8
			c0.6,3.1,2.2,6.1,4.8,8.8c8,8,16.4,1.2,20.2,0c3.7-1.2,8.9-6.3,13.6-1.6c3.8,3.8-1.2,8.8-3.4,6.5c-2.2-2.2-1-5.6-1-5.6
			s-4.7,1.3-4.1,6.1c-2.7-4.3-7.8-3.4-7.8-3.4s-1.5,4.6,4.7,7.1c-6.1,3-1.9,10.5-1.9,10.5s3-7.1,7.5-5.9c-2.5,6.6,0.8,10.2,5.3,11.3
			s7.3-2.7,6.9-7.5C122.1,59.7,118.9,57.3,120.1,54.2z M73.7,33.8c-6.9,6.9-19.1-1.9-19.1-1.9c2.4-0.1,3.7-0.4,5.4-2.3
			c4.9,2.6,12.4,2.3,10.7-6.3c-6.9,6.9-9.3-4.9-3.4-4.9S80.5,27,73.7,33.8z M81.6,23.5c-0.5-2.4-1.6-4.6-3.3-6.4
			c1.8-0.7,2.8-2.4,3.3-4c0.5,1.6,1.5,3.4,3.3,4C83.2,18.9,82.1,21.1,81.6,23.5z M89.4,33.8c-6.9-6.9,0.5-15.4,6.4-15.4
			s3.6,11.9-3.4,4.9c-1.7,8.6,5.8,8.9,10.7,6.3c1.7,1.9,3,2.2,5.4,2.3C108.6,31.9,96.3,40.7,89.4,33.8z"/>
		<path class="st0" d="M145.7,38.9L145.7,38.9L145.7,38.9L145.7,38.9L145.7,38.9c-18.3,0-23.6,23.4-9.1,23.4c8.5,0,9.1-4.4,9.1-5.3
			c0,0.9,0.6,5.3,9.1,5.3C169.3,62.3,164,38.9,145.7,38.9z M154.4,58.6c-2.8,0-4.9-2.5-4.9-4.9c0-2.3,1.8-3.2,4.9-0.9
			c-0.6-3.3-3.1-6.5-7.5-3.7c1.3-3.6-1.2-5.6-1.3-5.7v0l0,0l0,0v0c0,0-2.5,2.1-1.3,5.7c-4.4-2.8-6.9,0.3-7.5,3.7
			c3.1-2.3,4.9-1.4,4.9,0.9c0,2.3-2.1,4.9-4.9,4.9c-2.8,0-5.9-6.3-0.7-11.4c5.1-5.1,9.4-3.7,9.5-3.7v0l0,0l0,0v0
			c0,0,4.3-1.4,9.5,3.7C160.2,52.3,157.2,58.6,154.4,58.6z"/>
		<path class="st0" d="M17.5,38.9L17.5,38.9C17.5,38.9,17.5,38.9,17.5,38.9C17.5,38.9,17.5,38.9,17.5,38.9L17.5,38.9
			c-18.3,0-23.6,23.4-9.1,23.4c8.5,0,9.1-4.4,9.1-5.3c0,0.9,0.6,5.3,9.1,5.3C41.1,62.3,35.8,38.9,17.5,38.9z M26.2,58.6
			c-2.8,0-4.9-2.5-4.9-4.9c0-2.3,1.8-3.2,4.9-0.9c-0.6-3.3-3.1-6.5-7.5-3.7c1.3-3.6-1.2-5.6-1.3-5.7v0l0,0l0,0v0
			c0,0-2.5,2.1-1.3,5.7c-4.4-2.8-6.9,0.3-7.5,3.7c3.1-2.3,4.9-1.4,4.9,0.9c0,2.3-2.1,4.9-4.9,4.9c-2.8,0-5.9-6.3-0.7-11.4
			c5.1-5.1,9.4-3.7,9.5-3.7v0l0,0l0,0v0c0,0,4.3-1.4,9.5,3.7C32.1,52.3,29,58.6,26.2,58.6z"/>
	</g>
	<g>
		<rect x="9.7" y="151.5" class="st0" width="31.4" height="7.8"/>
		<rect x="122" y="151.5" class="st0" width="31.4" height="7.8"/>
		<rect x="0.4" y="162.6" class="st0" width="162.3" height="7.7"/>
		<path class="st0" d="M118,171.1c-3.7,2.9-8.2,12.5-11.4,15.3c-3.2,2.7-11.8,5.2-16.6,0.8c-4.8-4.4-3.1-11.9,2.3-12.3
			c5.3-0.3,4.5,4.8,2.6,5.8c-1.9,1-4.4-1.7-4.4-1.7s-0.6,9.3,8.5,4c0.7,3.9,4.6,4.1,4.6,4.1s2.6-3.7,0.2-6.3
			c5.5-1.1,7.4-5.1,5.2-10.3c-0.4,1.4-1.3,5.6-5.3,5.3c-5-0.4-2.1-6.3-10.5-6.3c-5.8,0-10.2,3.8-11.4,9.2c-1.2-5.3-5.6-9.2-11.4-9.2
			c-8.4,0-5.5,5.9-10.5,6.3c-4,0.3-4.9-3.9-5.3-5.3c-2.3,5.2-0.3,9.1,5.2,10.3c-2.4,2.6,0.2,6.3,0.2,6.3s3.9-0.2,4.6-4.1
			c9,5.3,8.5-4,8.5-4s-2.4,2.7-4.4,1.7c-1.9-1-2.7-6.1,2.6-5.8c5.3,0.3,7.1,7.9,2.3,12.3c-4.8,4.4-13.4,1.9-16.6-0.8
			c-3.2-2.7-7.7-12.4-11.4-15.3c-3.7-2.9-18.4-3.8-18.4,5.3c0,6.9,7.7,4,7.7,4c-2.6-1.6-3.4-6.3,3.5-6.3c7.4,0,7.5,8.8,15.4,16.5
			c7.9,7.7,24.9,5,27.8-4.1c0.2-0.6,0.3-1.2,0.5-1.8c0.1,0.6,0.3,1.2,0.5,1.8c2.9,9,19.9,11.8,27.8,4.1c7.9-7.7,8-16.5,15.4-16.5
			c6.9,0,6,4.7,3.5,6.3c0,0,7.7,2.9,7.7-4C136.4,167.3,121.7,168.2,118,171.1z"/>
		<path class="st0" d="M81.6,206c0,0-1.2-8.2-18.1-11c0-4.5,0-5.5,0-5.5s9.8,0.7,15.2,4.3c2.1,1.4,3,3.3,3,3.3V206z"/>
		<path class="st0" d="M81.6,206c0,0,1.2-8.2,18.1-11c0-4.5,0-5.5,0-5.5s-9.8,0.7-15.2,4.3c-2.1,1.4-3,3.3-3,3.3V206z"/>
	</g>
	<path class="st1" d="M123.3,142.1H109l4.1-2.5V93.8l-4.1-2.5h14.3l-4.1,2.5v45.8L123.3,142.1z"/>
	<path class="st1" d="M148.5,126.5c0,7.5-1.7,12.4-5,14.5c-1.1,0.7-2,1.1-2.5,1.1h-5.2c-0.4,0-1.2-0.3-2.4-1
		c-3.7-2.3-5.6-6.9-5.6-13.8v-16.7c0-5,0.2-8.6,0.7-10.8c0.9-4.6,2.7-7.4,5.5-8.5h8.6c1.9,0.7,3.4,2.2,4.5,4.5
		c0.9,1.9,1.4,4,1.4,6.3h-5.9c0-2.4-0.2-4-0.5-4.9c-0.6-1.5-1.8-2.8-3.7-3.7c-3.1,1.2-4.7,5.6-4.7,13.2v3.5c0,0.5,0,1.1,0,1.9
		c0,0.6,0,1,0,1.2c1.4-1.4,2.6-2.2,3.6-2.2h2.2c2.8,0,5.1,2,6.9,5.9C147.8,120.1,148.5,123.3,148.5,126.5z M142.6,126.6
		c0-4.4-0.1-7.2-0.4-8.5c-0.5-2.2-1.8-3.8-3.8-5c-2.2,1.2-3.6,3.2-4.2,5.9c-0.3,1.3-0.4,4-0.4,8.2c0,7.5,1.6,12,4.7,13.5
		c2-1.2,3.3-3.2,3.9-6.2C142.5,133.3,142.6,130.6,142.6,126.6z"/>
	<path class="st1" d="M38.6,127.2c-1.9,1.4-3.5,4.3-4.9,8c-1.4-3.7-3.1-6.5-5-8v-36h-5.9v36c-1.9,1.4-3.5,4.3-4.9,8
		c-1.4-3.7-3.1-6.5-5-8v-36H7.1v36.4c2,0.7,3.9,2.8,5.8,6.3c1.8,3.1,2.7,5.9,2.9,8.3h0.9c0.4,0,2.2,0,2.5,0h0.9
		c0.1-1.5,1-4.1,2.6-7.7c0.8-1.9,1.9-3.5,3.1-4.7c1.2,1.2,2.2,2.8,3,4.7c1.7,3.8,2.6,6.4,2.7,7.7h0.9c0.4,0,2.2,0,2.5,0h0.9
		c0.2-2.5,1.2-5.3,2.8-8.3c1.8-3.3,3.7-5.4,5.8-6.3V91.2h-5.9V127.2z"/>
	<path class="st1" d="M61.2,114.7c2.6-0.3,4.9-2.8,6.9-6.2c1.8-3,2.3-5.3,2.3-8.1c0-0.8,0.2-2.9-0.2-5.1c-0.1-1.1-0.9-2.1-2.3-2.9
		c-1.2-0.7-2.4-1.1-3.6-1.1H49.6v50.9h5.9v-25.6h2.4c1.5,0.7,3,1.7,4.5,4.8c1.7,3.5,2.5,7.1,2.5,10.8v10h5.9V132
		c0-3.7-0.7-7.3-2.2-10.8C66.8,116.8,64.3,115.1,61.2,114.7z M57.1,113.1h-1.7V94.7h8.9c0.3,2.8,0.5,3.4,0.5,5.1
		c0,2.5-0.5,5.3-2.2,8.1C61.8,109.5,59.3,112.2,57.1,113.1z"/>
	<path class="st1" d="M88.7,116.7c0-2.8-1.7-5.3-4.1-6.5V93.8l4.1-2.5H74.4l4.1,2.5v16.5c-2.4,1.1-4.1,3.6-4.1,6.5s1.7,5.3,4.1,6.5
		v16.5l-4.1,2.5h14.3l-4.1-2.5v-16.5C87,122,88.7,119.5,88.7,116.7z M81.6,120.3c-2,0-3.6-1.6-3.6-3.6c0-2,1.6-3.6,3.6-3.6
		c2,0,3.6,1.6,3.6,3.6C85.2,118.7,83.6,120.3,81.6,120.3z"/>
	<rect x="93.8" y="114" class="st1" width="12.5" height="5.4"/>
	<circle class="st2" cx="81.6" cy="77.6" r="5.8"/>
</g>
</svg>
