<?xml version="1.0" encoding="utf-8"?>
<!-- Generator: Adobe Illustrator 19.2.0, SVG Export Plug-In . SVG Version: 6.00 Build 0)  -->
<svg version="1.1" id="Layer_1" xmlns="http://www.w3.org/2000/svg" xmlns:xlink="http://www.w3.org/1999/xlink" x="0px" y="0px"
	 viewBox="0 0 87 30" style="enable-background:new 0 0 87 30;" xml:space="preserve">
<style type="text/css">
	.st0{fill:#66C3CB;}
</style>
<g>
	<path class="st0" d="M47.7,15c0-1.7-1-3.1-2.4-3.8V1.5L47.7,0h-8.4l2.4,1.5v9.7c-1.4,0.7-2.4,2.1-2.4,3.8s1,3.1,2.4,3.8v9.7
		L39.3,30h8.4l-2.4-1.5v-9.7C46.7,18.1,47.7,16.7,47.7,15z M43.5,17.1c-1.2,0-2.1-1-2.1-2.1c0-1.2,1-2.1,2.1-2.1
		c1.2,0,2.1,1,2.1,2.1C45.7,16.2,44.7,17.1,43.5,17.1z"/>
	<path class="st0" d="M73.4,30H65l2.4-1.5v-27L65,0h8.4L71,1.5v27L73.4,30z"/>
	<path class="st0" d="M87,20.8c0,4.4-1,7.3-2.9,8.5c-0.7,0.4-1.2,0.7-1.5,0.7h-3.1c-0.3,0-0.7-0.2-1.4-0.6c-2.2-1.3-3.3-4.1-3.3-8.2
		v-9.9c0-2.9,0.1-5,0.4-6.4c0.5-2.7,1.6-4.4,3.3-5h5.1c1.1,0.4,2,1.3,2.7,2.6C86.8,3.8,87,5,87,6.3h-3.5c0-1.4-0.1-2.4-0.3-2.9
		c-0.3-0.9-1.1-1.6-2.2-2.2C79.2,2,78.3,4.6,78.3,9v2.1c0,0.3,0,0.7,0,1.1c0,0.4,0,0.6,0,0.7c0.8-0.8,1.5-1.3,2.1-1.3h1.3
		c1.7,0,3,1.2,4.1,3.5C86.6,17,87,18.9,87,20.8z M83.6,20.8c0-2.6-0.1-4.3-0.3-5c-0.3-1.3-1.1-2.3-2.2-2.9c-1.3,0.7-2.1,1.9-2.5,3.5
		c-0.2,0.8-0.3,2.4-0.3,4.9c0,4.4,0.9,7.1,2.8,8c1.2-0.7,2-1.9,2.3-3.6C83.5,24.8,83.6,23.2,83.6,20.8z"/>
	<path class="st0" d="M18.6,21.2c-1.1,0.8-2.1,2.5-2.9,4.7c-0.8-2.2-1.8-3.9-2.9-4.7V0H9.3v21.2c-1.1,0.8-2.1,2.5-2.9,4.7
		c-0.8-2.2-1.8-3.9-2.9-4.7V0H0v21.4c1.2,0.4,2.3,1.7,3.4,3.7C4.5,27,5,28.6,5.1,30h0.5c0.2,0,1.3,0,1.5,0h0.5
		c0.1-0.9,0.6-2.4,1.5-4.6c0.5-1.1,1.1-2.1,1.8-2.8c0.7,0.7,1.3,1.6,1.8,2.8c1,2.2,1.5,3.8,1.6,4.6h0.5c0.2,0,1.3,0,1.5,0h0.5
		c0.1-1.5,0.7-3.1,1.7-4.9c1.1-1.9,2.2-3.2,3.4-3.7V0h-3.5V21.2z"/>
	<path class="st0" d="M31.9,13.8c1.5-0.2,2.9-1.7,4.1-3.7c1.1-1.8,1.4-3.1,1.4-4.8c0-0.5,0.1-1.7-0.1-3c-0.1-0.6-0.5-1.2-1.4-1.7
		C35.2,0.2,34.5,0,33.8,0H25v30h3.5V14.9h1.4c0.9,0.4,1.8,1,2.7,2.8c1,2,1.5,4.2,1.5,6.3V30h3.5v-6c0-2.2-0.4-4.3-1.3-6.4
		C35.2,15.1,33.7,14.1,31.9,13.8z M29.5,12.9h-1V2.1h5.3c0.2,1.7,0.3,2,0.3,3c0,1.5-0.3,3.1-1.3,4.7C32.2,10.8,30.8,12.3,29.5,12.9z
		"/>
	<rect x="52.7" y="13.4" class="st0" width="8.1" height="3.2"/>
</g>
</svg>
